<?xml version="1.0" encoding="utf-8"?>
<!-- Generator: Adobe Illustrator 22.0.0, SVG Export Plug-In . SVG Version: 6.00 Build 0)  -->
<svg version="1.1" id="Слой_1" xmlns="http://www.w3.org/2000/svg" xmlns:xlink="http://www.w3.org/1999/xlink" x="0px" y="0px"
	 viewBox="0 0 324 328.5" style="enable-background:new 0 0 324 328.5;" xml:space="preserve">
<style type="text/css">
	.st0{fill:#AAAAAA;}
</style>
<g>
	<polygon class="st0" points="6.2,153.3 6.2,153.3 6.2,153.3 	"/>
	<path class="st0" d="M318,172.8v-19.5l-16-5c-0.7-1.9-1.5-10-2.1-12.8c-0.8-3.7-2.5-8.9-2.9-12.2l12.8-10.8l-7.4-18l-16.7,1.4
		l-10.5-15.9c-1-1.4-3.1-3.8-3.8-5.1l7.8-15L265.4,46l-15.2,7.8c-6.9-5.3-13.2-9.7-21-14l1.6-17.1l-18-7.4l-11.2,13.2
		c-5.8-2.4-18.3-4.3-24.7-5l-5.1-16.5h-19.5l-5.1,16.5c-6.5,0.7-18.7,2.5-24.7,5l-11.2-13.2l-18,7.4L95,39.8
		c-7.7,4.3-14.2,8.7-21,14L58.7,46L45,59.8l7.8,15c-0.7,1.2-2.9,3.8-3.8,5.1L38.5,95.9l-16.7-1.4l-7.4,18l12.8,10.8
		c-0.5,3.4-2.1,8.1-2.9,11.9c-0.8,4-1.2,9.2-2.1,12.8c-1.7,1.3-13,4.3-16.1,5.3v19.5l16,5c0.4,6.3,2.7,19.1,4.9,25l-12.7,10.9
		l7.4,18l16.3-1.4c1.4,1.5,5.2,8.5,6.8,10.9c1.9,2.8,5.4,8.1,7.6,10.3L45,266.3l13.7,13.8l14.7-7.6c11.4,8.4,9.3,6.9,21.3,14.5
		l-1.3,16.4l18,7.3l10.4-12.4c4,0.8,8.1,2.1,12.3,3c3.7,0.7,10.2,1.3,13.3,2.2l4.8,15.5h19.6l4.8-15.4c3-0.9,9.7-1.5,13.3-2.2
		c2.7-0.5,10.6-2.9,12.5-2.9l10.1,12.4l18-7.4l-1.4-16.2c3.6-2.3,7.4-4.4,11.1-6.8c3.6-2.5,6.9-5.2,10.3-7.6l14.7,7.5l13.8-13.7
		l-7.7-14.8c2.4-2.4,5.8-7.5,7.7-10.4c1.7-2.5,5.3-9.3,6.8-11l16.3,1.5l7.3-18l-12.8-10.8c2.2-5.2,4.6-19.4,5-25.2L318,172.8z
		 M162.1,273.7C101,273.7,51.4,224.1,51.4,163S101,52.4,162.1,52.4c61.1,0,110.6,49.5,110.6,110.6S223.2,273.7,162.1,273.7z"/>
</g>
<path class="st0" d="M89.4,203.4l71.5,35.9l0,0c0.2,0,0.2,0.2,0.4,0.2h0.2c0.2,0,0.4,0,0.6,0s0.4,0,0.6,0h0.2c0.2,0,0.4,0,0.4-0.2
	l0,0l71.5-35.9c1-0.6,1.6-1.6,1.6-2.7v-70.4c0-0.2,0-0.6-0.2-0.8v-0.2c0-0.2-0.2-0.4-0.2-0.6c0,0,0,0,0-0.2
	c-0.2-0.2-0.2-0.4-0.4-0.6c0,0,0,0-0.2-0.2c-0.2-0.2-0.4-0.2-0.6-0.4l0,0l-71.1-35.5c-0.8-0.4-1.8-0.4-2.7,0l-71.5,35.9l0,0
	c-0.2,0.2-0.4,0.2-0.6,0.4c0,0,0,0-0.2,0.2s-0.4,0.4-0.4,0.6c0,0,0,0,0,0.2c-0.2,0.2-0.2,0.4-0.2,0.6v0.2c0,0.2-0.2,0.4-0.2,0.8
	v70.2C87.8,201.9,88.4,203,89.4,203.4z M121.1,118.6l29,14.5l-23.7,11.8l-29-14.5L121.1,118.6z M227.1,130.3L206,140.9l-28.8-14.5
	l21-10.4L227.1,130.3z M165.2,231.7V168l24.7-12.2v63.7L165.2,231.7z M135,111.7l67.4,34.3v67.2l-6.7,3.3v-65.5
	c0-1.2-0.6-2.2-1.6-2.7L128,115.2L135,111.7z M186,151.1l-23.7,11.8l-29-14.5l23.7-11.8L186,151.1z M93.7,135.2l65.7,32.7v63.7
	l-65.7-32.7V135.2z M208.5,210.1v-63.7l22.3-11.2v63.7L208.5,210.1z M191.3,112.5l-21,10.4l-28.8-14.7L162.3,98L191.3,112.5z"/>
<polygon class="st0" points="128.7,209.8 118.9,204.9 118.9,166.7 128.7,171.6 "/>
<polygon class="st0" points="132.8,173.8 124,155 115.6,165.2 "/>
</svg>
